<svg aria-hidden="true" style="position: absolute; width: 0; height: 0; overflow: hidden;" version="1.1" xmlns="http://www.w3.org/2000/svg" xmlns:xlink="http://www.w3.org/1999/xlink">
    <defs>
        <symbol id="icon-instagram" viewBox="0 0 32 32">
            <path d="M15.998 6.161c3.206 0 3.585 0.014 4.846 0.071 1.172 0.052 1.804 0.248 2.226 0.412 0.558 0.216 0.961 0.478 1.378 0.895 0.422 0.422 0.679 0.82 0.9 1.378 0.164 0.422 0.361 1.059 0.413 2.226 0.056 1.266 0.070 1.645 0.070 4.847s-0.014 3.585-0.070 4.847c-0.052 1.172-0.248 1.804-0.413 2.227-0.216 0.558-0.478 0.961-0.895 1.377-0.422 0.422-0.82 0.679-1.378 0.9-0.422 0.164-1.060 0.361-2.226 0.412-1.266 0.056-1.645 0.071-4.847 0.071s-3.585-0.014-4.847-0.071c-1.172-0.052-1.804-0.248-2.226-0.412-0.558-0.216-0.961-0.478-1.378-0.895-0.422-0.422-0.679-0.82-0.9-1.378-0.164-0.422-0.361-1.060-0.412-2.226-0.056-1.266-0.071-1.645-0.071-4.847s0.014-3.585 0.071-4.847c0.052-1.172 0.248-1.804 0.412-2.226 0.216-0.558 0.478-0.961 0.895-1.378 0.422-0.422 0.82-0.679 1.378-0.9 0.422-0.164 1.059-0.361 2.226-0.412 1.261-0.056 1.641-0.071 4.847-0.071h0.001zM15.998 4.001c-3.258 0-3.665 0.014-4.945 0.071-1.275 0.056-2.151 0.262-2.91 0.558-0.792 0.309-1.462 0.717-2.127 1.387-0.67 0.666-1.078 1.336-1.387 2.123-0.295 0.764-0.502 1.636-0.558 2.91-0.056 1.285-0.071 1.692-0.071 4.949s0.014 3.665 0.071 4.945c0.056 1.275 0.262 2.151 0.558 2.91 0.31 0.792 0.717 1.462 1.387 2.127 0.665 0.665 1.336 1.078 2.123 1.383 0.764 0.295 1.636 0.502 2.91 0.558 1.279 0.056 1.687 0.071 4.945 0.071s3.666-0.014 4.945-0.071c1.275-0.056 2.151-0.262 2.91-0.558 0.787-0.305 1.458-0.717 2.123-1.383s1.078-1.336 1.383-2.123c0.295-0.764 0.502-1.635 0.558-2.91 0.056-1.279 0.071-1.687 0.071-4.945s-0.014-3.665-0.071-4.945c-0.056-1.275-0.262-2.151-0.558-2.91-0.295-0.797-0.703-1.467-1.373-2.133-0.665-0.665-1.336-1.078-2.123-1.383-0.764-0.295-1.636-0.502-2.91-0.558-1.284-0.061-1.692-0.075-4.949-0.075l-0.001 0.001z"></path>
            <path d="M15.997 9.836c-3.402 0-6.163 2.76-6.163 6.163s2.76 6.163 6.163 6.163c3.403 0 6.163-2.76 6.163-6.163s-2.76-6.163-6.163-6.163zM15.997 19.997c-2.208 0-3.998-1.79-3.998-3.998s1.79-3.998 3.998-3.998c2.208 0 3.998 1.79 3.998 3.998s-1.79 3.998-3.998 3.998z"></path>
            <path d="M23.842 9.592c0 0.795-0.644 1.439-1.439 1.439s-1.439-0.644-1.439-1.439 0.644-1.439 1.439-1.439c0.795 0 1.439 0.644 1.439 1.439z"></path>
        </symbol>
        <symbol id="icon-linkedin" viewBox="0 0 32 32">
            <path d="M25.75 4h-19.5c-1.237 0-2.25 1.013-2.25 2.25v19.5c0 1.237 1.013 2.25 2.25 2.25h19.5c1.237 0 2.25-1.013 2.25-2.25v-19.5c0-1.237-1.013-2.25-2.25-2.25zM13 23.5h-3v-10.5h3v10.5zM11.5 11.5c-0.829 0-1.5-0.671-1.5-1.5s0.671-1.5 1.5-1.5c0.829 0 1.5 0.671 1.5 1.5s-0.671 1.5-1.5 1.5zM23.5 23.5h-3v-6c0-0.829-0.671-1.5-1.5-1.5s-1.5 0.671-1.5 1.5v6h-3v-10.5h3v1.861c0.619-0.848 1.565-1.861 2.625-1.861 1.866 0 3.375 1.679 3.375 3.75v6.75z"></path>
        </symbol>
        <symbol id="icon-burger-menu" viewBox="0 0 32 32">
            <path d="M5.333 8h21.333v2.667h-21.333v-2.667zM5.333 14.667h21.333v2.667h-21.333v-2.667zM5.333 21.333h21.333v2.667h-21.333v-2.667z"></path>
        </symbol>
        <symbol id="icon-star-fill" viewBox="0 0 32 32">
            <path d="M8.688 19.097l-1.987 8.603c-0.062 0.261-0.043 0.533 0.053 0.783s0.265 0.465 0.485 0.617c0.22 0.152 0.481 0.235 0.749 0.236s0.53-0.078 0.752-0.227l7.26-4.84 7.26 4.84c0.227 0.151 0.495 0.228 0.768 0.222s0.537-0.095 0.757-0.256c0.22-0.161 0.386-0.385 0.475-0.642s0.097-0.536 0.023-0.799l-2.439-8.533 6.048-5.443c0.194-0.174 0.332-0.402 0.398-0.654s0.056-0.518-0.027-0.765-0.238-0.464-0.444-0.624c-0.206-0.16-0.454-0.256-0.714-0.277l-7.601-0.605-3.289-7.281c-0.105-0.234-0.275-0.434-0.491-0.573s-0.467-0.214-0.724-0.214c-0.257 0-0.508 0.074-0.724 0.214s-0.386 0.339-0.491 0.573l-3.289 7.281-7.601 0.604c-0.255 0.020-0.5 0.114-0.703 0.269s-0.358 0.366-0.445 0.607c-0.087 0.241-0.103 0.502-0.046 0.752s0.185 0.478 0.369 0.656l5.619 5.476z"></path>
        </symbol>
        <symbol id="icon-star-empty" viewBox="0 0 32 32">
            <path d="M8.688 19.097l-1.987 8.603c-0.062 0.261-0.043 0.533 0.053 0.783s0.265 0.465 0.485 0.617c0.22 0.152 0.481 0.235 0.749 0.236s0.53-0.078 0.752-0.227l7.26-4.84 7.26 4.84c0.227 0.151 0.495 0.228 0.768 0.222s0.537-0.095 0.757-0.256c0.22-0.161 0.386-0.385 0.475-0.642s0.097-0.536 0.023-0.799l-2.439-8.533 6.048-5.443c0.194-0.174 0.332-0.402 0.398-0.654s0.056-0.518-0.027-0.765-0.238-0.464-0.444-0.624c-0.206-0.16-0.454-0.256-0.714-0.277l-7.601-0.605-3.289-7.281c-0.105-0.234-0.275-0.434-0.491-0.573s-0.467-0.214-0.724-0.214c-0.257 0-0.508 0.074-0.724 0.214s-0.386 0.339-0.491 0.573l-3.289 7.281-7.601 0.604c-0.255 0.020-0.5 0.114-0.703 0.269s-0.358 0.366-0.445 0.607c-0.087 0.241-0.103 0.502-0.046 0.752s0.185 0.478 0.369 0.656l5.619 5.476zM12.492 13.329c0.238-0.019 0.467-0.101 0.662-0.239s0.35-0.325 0.448-0.543l2.399-5.308 2.399 5.308c0.098 0.218 0.252 0.405 0.448 0.543s0.424 0.22 0.662 0.239l5.296 0.42-4.361 3.925c-0.379 0.341-0.529 0.867-0.391 1.357l1.671 5.847-4.981-3.321c-0.219-0.147-0.476-0.225-0.739-0.225s-0.521 0.078-0.739 0.225l-5.205 3.471 1.4-6.061c0.051-0.223 0.044-0.455-0.020-0.675s-0.184-0.419-0.348-0.579l-4.051-3.949 5.453-0.435z"></path>
        </symbol>
        <symbol id="icon-close" viewBox="0 0 32 32">
            <path d="M21.589 8.459l-5.657 5.656-5.656-5.656-1.885 1.885 5.656 5.656-5.656 5.656 1.885 1.885 5.656-5.656 5.657 5.656 1.885-1.885-5.656-5.656 5.656-5.656-1.885-1.885z"></path>
        </symbol>
        <symbol id="icon-youtube" viewBox="0 0 32 32">
            <path d="M28.791 9.604c-0.152-0.563-0.449-1.077-0.861-1.49s-0.925-0.711-1.489-0.864c-2.088-0.573-10.441-0.583-10.441-0.583s-8.352-0.009-10.441 0.539c-0.563 0.16-1.075 0.462-1.487 0.878s-0.711 0.929-0.867 1.493c-0.551 2.088-0.556 6.419-0.556 6.419s-0.005 4.352 0.541 6.419c0.307 1.143 1.207 2.045 2.351 2.353 2.109 0.573 10.44 0.583 10.44 0.583s8.353 0.009 10.441-0.537c0.563-0.153 1.077-0.45 1.49-0.862s0.712-0.925 0.866-1.488c0.552-2.087 0.556-6.416 0.556-6.416s0.027-4.353-0.543-6.441zM13.328 20.007l0.007-8 6.943 4.007-6.949 3.993z"></path>
        </symbol>
        <symbol id="logo-mobile" viewBox="0 0 75 32">
            <path d="M13.034 2.222c-0.142 0-0.292 0-0.433 0.017-1.636 0.136-3.139 0.831-4.209 2.097-1.165 1.378-1.447 2.829-1.433 4.583l-3.116-0.005c-0.14-0-0.284-0.004-0.43-0.008-0.407-0.011-0.829-0.023-1.21 0.047-0.23 0.042-0.43 0.154-0.592 0.322-0.283 0.294-0.29 0.666-0.271 1.047 0.029 0.601 0.081 1.202 0.132 1.803 0.028 0.327 0.056 0.654 0.080 0.98l0.517 6.683 0.252 3.227c0.012 0.159 0.022 0.32 0.032 0.482 0.036 0.578 0.072 1.164 0.224 1.716 0.263 0.94 0.785 1.786 1.507 2.444 0.63 0.572 1.392 0.981 2.218 1.188 0.699 0.169 1.51 0.149 2.272 0.132 0.227-0.005 0.449-0.011 0.663-0.011l7.859 0c0.2 0 0.406 0.005 0.615 0.010 0.677 0.016 1.382 0.033 2.015-0.115 0.89-0.207 1.79-0.695 2.439-1.339 0.604-0.6 1.087-1.4 1.298-2.227 0.161-0.633 0.202-1.327 0.241-2 0.013-0.217 0.025-0.432 0.042-0.642l0.344-4.426 0.429-5.435c0.021-0.268 0.048-0.54 0.075-0.812 0.058-0.589 0.117-1.183 0.116-1.765-0.001-0.358-0.076-0.692-0.333-0.958-0.177-0.183-0.465-0.273-0.71-0.313-0.366-0.060-0.768-0.049-1.156-0.039-0.144 0.004-0.286 0.008-0.423 0.008-0.98-0.002-1.96 0.002-2.94 0.010l-0.042 0.001c0.023-1.878-0.395-3.49-1.745-4.863-1.128-1.169-2.681-1.832-4.305-1.839l-0.021 0zM18.973 12.935l0.053 0.003c0.001 0.004 0.003 0.007 0.004 0.010 0.001 0.002 0.001 0.003 0.002 0.005 0.002 0.006 0.004 0.011 0.006 0.015l0.002 0.005c0.010 0.022 0.011 0.026 0.011 0.061-0.017 2.303-0.633 5.268-2.268 6.954-1.514 1.562-3.864 2.328-6.007 2.371 0.998-1.878 2.603-3.659 4.257-4.981 0.256-0.204 0.524-0.389 0.792-0.574 0.173-0.119 0.345-0.238 0.515-0.363 0.165-0.121 0.386-0.285 0.41-0.505 0.021-0.203-0.087-0.36-0.214-0.505-0.178-0.103-0.308-0.146-0.511-0.087-0.289 0.085-0.579 0.298-0.842 0.491-0.069 0.051-0.137 0.101-0.202 0.146-2.122 1.503-3.885 3.456-5.163 5.72-0.043-1.842 0.376-3.385 1.506-4.867 1.695-2.223 4.94-3.53 7.649-3.899zM2.502 10.068l21.051-0c-0.075 0.709-0.123 1.424-0.171 2.139-0.027 0.398-0.054 0.796-0.085 1.192l-0.567 7.103-0.212 2.617c-0.009 0.114-0.018 0.228-0.027 0.342-0.034 0.452-0.068 0.907-0.155 1.349-0.090 0.454-0.263 0.848-0.498 1.244-0.091 0.138-0.189 0.27-0.295 0.397-0.61 0.729-1.612 1.272-2.564 1.344-0.518 0.039-1.051 0.029-1.579 0.020-0.229-0.004-0.456-0.008-0.681-0.009l-7.843 0c-0.168 0-0.338 0.004-0.51 0.007-0.527 0.011-1.067 0.022-1.573-0.065-0.664-0.116-1.285-0.409-1.797-0.848-0.613-0.517-1.054-1.21-1.261-1.985-0.142-0.514-0.178-1.061-0.212-1.598-0.009-0.135-0.017-0.269-0.028-0.402l-0.207-2.663-0.784-10.185zM19.441 11.7l-0.016 0.002c-3.196 0.37-6.834 1.684-8.899 4.273-1.328 1.664-2.053 3.828-1.813 5.959 0.053 0.468 0.159 0.915 0.311 1.36-0.017 0.044-0.038 0.097-0.062 0.157-0.262 0.659-0.872 2.191-0.66 2.644 0.061 0.131 0.186 0.219 0.322 0.262 0.056 0.017 0.112 0.028 0.17 0.034 0.179-0.029 0.345-0.067 0.452-0.227 0.116-0.172 0.234-0.586 0.336-0.94 0.048-0.169 0.093-0.324 0.131-0.433 0.131-0.373 0.28-0.74 0.429-1.106l0.002-0.004c0.017-0.043 0.035-0.086 0.052-0.129 2.635 0.008 5.449-0.817 7.356-2.698 2.132-2.104 2.669-5.496 2.673-8.367 0-0.226-0.015-0.495-0.181-0.668-0.102-0.107-0.255-0.139-0.397-0.135-0.069 0.002-0.137 0.009-0.206 0.016zM12.777 3.374c0.102-0.006 0.205-0.012 0.307-0.011 1.252 0.009 2.505 0.569 3.385 1.451 1.198 1.201 1.442 2.476 1.445 4.106l-9.746 0.004c-0.039-1.401 0.186-2.681 1.106-3.788 0.883-1.063 2.144-1.64 3.504-1.761z"></path>
            <path d="M19.026 12.938l-0.053-0.003c-2.708 0.369-5.953 1.676-7.648 3.899-1.13 1.482-1.549 3.025-1.506 4.867 1.278-2.264 3.041-4.217 5.163-5.72 0.065-0.045 0.133-0.095 0.202-0.146 0.262-0.193 0.553-0.406 0.842-0.491 0.203-0.060 0.334-0.017 0.511 0.087 0.127 0.145 0.235 0.302 0.213 0.505-0.023 0.22-0.245 0.384-0.41 0.505-0.17 0.124-0.342 0.243-0.515 0.363-0.268 0.185-0.536 0.369-0.792 0.574-1.655 1.323-3.259 3.103-4.257 4.981 2.143-0.043 4.494-0.809 6.007-2.371 1.634-1.687 2.251-4.651 2.268-6.954 0-0.035-0.001-0.039-0.011-0.061-0.002-0.005-0.005-0.012-0.008-0.020-0.002-0.004-0.004-0.009-0.006-0.015zM19.425 11.702l0.016-0.002c0.068-0.007 0.137-0.015 0.206-0.016 0.142-0.003 0.296 0.029 0.397 0.135 0.166 0.173 0.181 0.442 0.181 0.668-0.004 2.871-0.541 6.264-2.673 8.367-1.906 1.881-4.721 2.706-7.356 2.698-0.017 0.043-0.035 0.086-0.052 0.129l-0.002 0.004c-0.149 0.366-0.298 0.733-0.429 1.106-0.038 0.109-0.083 0.264-0.131 0.433-0.101 0.354-0.22 0.768-0.336 0.94-0.108 0.16-0.273 0.197-0.452 0.227-0.058-0.007-0.114-0.017-0.17-0.034-0.135-0.043-0.26-0.131-0.322-0.262-0.212-0.453 0.398-1.985 0.66-2.644 0.024-0.060 0.045-0.113 0.062-0.157-0.153-0.445-0.259-0.892-0.311-1.36-0.24-2.131 0.486-4.295 1.813-5.959 2.066-2.589 5.703-3.903 8.899-4.273z"></path>
            <path d="M19.441 11.7l-0.016 0.002c-3.196 0.37-6.834 1.684-8.899 4.273-1.328 1.664-2.053 3.828-1.813 5.959 0.053 0.468 0.159 0.915 0.311 1.36-0.017 0.044-0.038 0.097-0.062 0.157-0.262 0.659-0.872 2.191-0.66 2.644 0.061 0.131 0.186 0.219 0.322 0.262 0.056 0.017 0.112 0.028 0.17 0.034 0.179-0.029 0.345-0.067 0.452-0.227 0.116-0.172 0.234-0.586 0.336-0.94 0.048-0.169 0.093-0.324 0.131-0.433 0.131-0.373 0.28-0.74 0.429-1.106 0.001-0.001 0.001-0.003 0.002-0.004 0.017-0.043 0.035-0.086 0.052-0.129 2.635 0.008 5.45-0.817 7.356-2.698 2.132-2.104 2.669-5.496 2.673-8.367 0-0.226-0.015-0.495-0.181-0.668-0.102-0.107-0.255-0.139-0.397-0.135-0.069 0.002-0.137 0.009-0.206 0.016zM18.973 12.935l0.053 0.003c0.002 0.005 0.004 0.010 0.006 0.015 0.003 0.008 0.006 0.014 0.008 0.020 0.010 0.022 0.011 0.026 0.011 0.061-0.017 2.303-0.633 5.268-2.268 6.954-1.514 1.562-3.864 2.328-6.007 2.371 0.998-1.878 2.603-3.659 4.257-4.981 0.256-0.204 0.524-0.389 0.792-0.574 0.173-0.119 0.345-0.238 0.515-0.363 0.165-0.121 0.386-0.285 0.41-0.505 0.021-0.203-0.087-0.36-0.214-0.505-0.178-0.103-0.308-0.146-0.511-0.087-0.288 0.085-0.579 0.298-0.841 0.491-0.069 0.051-0.137 0.101-0.202 0.146-2.122 1.503-3.885 3.456-5.163 5.72-0.043-1.842 0.376-3.385 1.506-4.867 1.695-2.223 4.94-3.53 7.649-3.899z"></path>
            <path d="M60.587 19.504c-0.080-2.264-1.979-4.034-4.242-3.954s-4.035 1.979-3.955 4.243c0.080 2.264 1.98 4.034 4.243 3.954s4.033-1.98 3.954-4.243zM56.487 16.781c0.66 0.027 1.195 0.186 1.699 0.631 0.6 0.531 0.934 1.298 0.978 2.092s-0.206 1.601-0.747 2.193c-0.495 0.541-1.112 0.784-1.834 0.82-0.66-0.007-1.204-0.11-1.724-0.542-0.608-0.506-0.951-1.254-1.016-2.035-0.067-0.812 0.146-1.652 0.685-2.275 0.535-0.618 1.166-0.83 1.96-0.884z"></path>
            <path d="M49.189 19.165c-0.27-2.251-2.315-3.855-4.565-3.581-2.244 0.273-3.843 2.312-3.574 4.557s2.305 3.848 4.55 3.583c2.251-0.266 3.859-2.308 3.59-4.558zM44.755 16.814c0.657-0.053 1.251 0.016 1.806 0.397 0.623 0.428 1.014 1.090 1.144 1.828 0.147 0.839 0.009 1.736-0.496 2.435-0.442 0.612-0.994 0.916-1.729 1.033-0.672 0.034-1.265-0.006-1.831-0.407-0.61-0.43-1.021-1.088-1.141-1.825-0.137-0.813 0.027-1.748 0.512-2.424 0.426-0.594 1.022-0.923 1.735-1.037z"></path>
            <path d="M69.184 15.545c-0.020 0.001-0.040 0.002-0.060 0.005-1.032 0.122-1.962 0.621-2.611 1.441-0.74 0.935-0.995 2.121-0.849 3.294 0.12 1.030 0.647 1.97 1.464 2.609 0.968 0.752 2.194 0.943 3.39 0.779 0.692-0.095 1.731-0.426 2.174-1.002 0.124-0.162 0.187-0.359 0.158-0.563-0.020-0.143-0.083-0.28-0.201-0.368-0.136-0.101-0.316-0.114-0.477-0.082-0.224 0.044-0.424 0.182-0.614 0.313-0.040 0.028-0.080 0.055-0.119 0.081-0.835 0.434-1.761 0.638-2.679 0.34-0.653-0.215-1.193-0.684-1.497-1.302-0.158-0.316-0.237-0.651-0.307-0.995h3.94c0.164 0 0.34 0.006 0.521 0.012 0.467 0.015 0.967 0.031 1.38-0.043 0.118-0.021 0.23-0.084 0.315-0.167 0.194-0.189 0.228-0.456 0.222-0.714-0.022-0.987-0.486-1.961-1.204-2.629-0.829-0.771-1.829-1.061-2.944-1.011zM69.306 16.779c0.598-0.070 1.201 0.082 1.694 0.429 0.589 0.419 0.898 1.013 1.022 1.713-0.499 0.006-1 0.005-1.5 0.003-0.25-0.001-0.5-0.001-0.749-0.001l-2.771 0.004c0.127-0.426 0.274-0.814 0.547-1.171 0.439-0.575 1.047-0.884 1.757-0.977z"></path>
            <path d="M47.24 12.615c1.479-0.035 2.966-0.003 4.446-0.005 0.843-0.002 1.92-0.070 2.738 0.014 0.132 0.014 0.236 0.051 0.337 0.139 0.142 0.124 0.237 0.312 0.242 0.502 0.004 0.172-0.101 0.369-0.225 0.484-0.095 0.088-0.208 0.123-0.332 0.143-0.341 0.055-0.717 0.023-1.062 0.022l-1.836-0.003-0.001 6.814c0.003 0.574 0.075 1.827-0.011 2.315-0.027 0.153-0.083 0.306-0.188 0.424-0.114 0.126-0.27 0.19-0.439 0.193-0.176 0.004-0.349-0.035-0.476-0.163-0.15-0.15-0.205-0.371-0.223-0.576-0.034-0.378-0.003-0.779 0.001-1.159 0.007-0.562 0.001-1.125 0.001-1.687l0.004-6.163c-0.611 0.003-2.724 0.1-3.157-0.096-0.158-0.072-0.257-0.182-0.315-0.347-0.061-0.175-0.033-0.361 0.055-0.522 0.103-0.188 0.242-0.269 0.441-0.33z"></path>
            <path d="M37.566 15.551c0.549-0.031 1.086 0.004 1.619 0.147 0.563 0.151 1.425 0.483 1.716 1.018 0.080 0.147 0.122 0.323 0.065 0.486-0.058 0.166-0.215 0.293-0.374 0.358-0.463 0.19-1.043-0.448-1.479-0.613-0.709-0.267-1.561-0.252-2.25 0.069-0.633 0.296-1.089 0.856-1.325 1.506-0.274 0.755-0.297 1.74 0.051 2.475 0.322 0.682 0.915 1.159 1.618 1.407 0.805 0.285 1.643 0.133 2.395-0.227 0.233-0.126 0.445-0.294 0.71-0.349 0.137-0.028 0.273-0.013 0.39 0.068 0.144 0.1 0.26 0.297 0.279 0.471 0.018 0.163-0.046 0.314-0.147 0.439-0.44 0.545-1.419 0.819-2.086 0.901-1.157 0.142-2.361-0.090-3.287-0.828-0.87-0.68-1.424-1.687-1.532-2.786-0.115-1.095 0.206-2.191 0.894-3.051 0.697-0.857 1.647-1.375 2.742-1.492z"></path>
            <path d="M62.269 13.482c0.023-0.001 0.046-0.002 0.069-0.003 0.205-0.007 0.411 0.048 0.556 0.2 0.346 0.361 0.208 1.578 0.204 2.077 0.471 0.003 1.616-0.144 1.969 0.17 0.128 0.114 0.18 0.272 0.18 0.44 0.001 0.163-0.042 0.319-0.163 0.434-0.33 0.312-1.52 0.189-1.987 0.187 0.004 1.001-0.131 4.086 0.178 4.845 0.499 1.228 1.579 0.148 2.196 0.438 0.132 0.062 0.24 0.194 0.289 0.33 0.069 0.195 0.008 0.368-0.072 0.547-0.014 0.015-0.027 0.030-0.041 0.045-0.372 0.388-1.072 0.481-1.586 0.489-0.596 0.009-1.16-0.093-1.6-0.534-0.318-0.319-0.516-0.756-0.613-1.192-0.15-0.673-0.088-1.417-0.087-2.103l0.002-2.864c-0.362-0-0.724-0.003-1.085-0.009-0.060-0.037-0.118-0.076-0.17-0.123-0.143-0.129-0.208-0.321-0.213-0.51-0.004-0.158 0.044-0.315 0.162-0.424 0.292-0.271 0.935-0.174 1.306-0.167-0.001-0.521-0.115-1.455 0.081-1.914 0.088-0.204 0.23-0.277 0.426-0.359z"></path>
            <path d="M33.582 13.286c-0.623-0.061-3.672-0.039-4.73-0.024-0.195 0.003-0.375 0.016-0.533 0.028-0.135 0.010-0.254 0.019-0.352 0.019 0 0-0.421 0.099-0.558 0.288-0.089 0.124-0.12 0.282-0.141 0.43-0.113 0.788-0.179 1.591-0.245 2.393-0.035 0.422-0.069 0.843-0.111 1.26l-0.401 4.049c-0.011 0.108-0.029 0.256-0.050 0.424-0.068 0.542-0.162 1.294-0.101 1.593 0.034 0.166 0.122 0.303 0.268 0.389 0.145 0.085 0.308 0.134 0.473 0.162h0.002c0.34-0.001 0.853 0.005 1.427 0.011 1.189 0.012 4.211 0.027 4.913-0.003 0.14-0.006 0.289-0.018 0.421-0.068 0.177-0.067 0.323-0.196 0.393-0.374 0.071-0.18 0.055-0.381-0.025-0.555-0.081-0.175-0.189-0.268-0.372-0.327h-6.074c0.101-0.894 0.192-1.79 0.272-2.686l0.072-0.729 0.007-0.072c0.047 0.001 0.11 0.002 0.184 0.003 0.619 0.009 3.63 0.031 4.014-0.026 0.141-0.021 0.272-0.056 0.375-0.16 0.133-0.135 0.189-0.32 0.178-0.507-0.009-0.158-0.079-0.331-0.2-0.438-0.080-0.071-0.18-0.117-0.286-0.132-0.359-0.052-3.036-0.038-3.712-0.029-0.181 0.002-0.332 0.004-0.429 0.004l0.308-3.633h3.278c0.167 0 0.341 0.006 0.518 0.011 0.428 0.014 0.871 0.028 1.269-0.034 0.142-0.022 0.263-0.070 0.365-0.173 0.126-0.126 0.194-0.317 0.185-0.494-0.010-0.181-0.107-0.353-0.249-0.464-0.108-0.085-0.217-0.123-0.352-0.136z"></path>
        </symbol>
        <symbol id="logo-desktop" viewBox="0 0 75 32">
            <path d="M13.276 2.334c-0.141 0-0.29 0-0.43 0.017-1.623 0.135-3.115 0.825-4.177 2.081-1.156 1.367-1.435 2.807-1.422 4.547l-3.092-0.005c-0.138-0-0.282-0.004-0.427-0.008-0.403-0.011-0.822-0.023-1.2 0.046-0.228 0.042-0.427 0.153-0.587 0.319-0.281 0.292-0.287 0.661-0.269 1.039 0.029 0.596 0.080 1.193 0.131 1.789 0.028 0.324 0.056 0.649 0.080 0.973l0.513 6.632 0.25 3.203c0.012 0.158 0.022 0.318 0.032 0.478 0.035 0.573 0.071 1.155 0.222 1.703 0.261 0.932 0.779 1.772 1.495 2.425 0.625 0.568 1.381 0.973 2.201 1.179 0.693 0.167 1.498 0.148 2.255 0.131 0.225-0.005 0.446-0.010 0.658-0.011l7.799 0c0.199 0 0.403 0.005 0.61 0.010 0.671 0.016 1.371 0.033 1.999-0.114 0.883-0.206 1.776-0.69 2.421-1.329 0.6-0.595 1.079-1.389 1.288-2.21 0.16-0.628 0.201-1.317 0.239-1.985 0.013-0.215 0.025-0.429 0.041-0.637l0.341-4.392 0.425-5.393c0.021-0.266 0.047-0.536 0.074-0.805 0.058-0.585 0.116-1.174 0.115-1.752-0.001-0.355-0.076-0.687-0.331-0.951-0.175-0.182-0.462-0.271-0.704-0.31-0.363-0.059-0.762-0.049-1.148-0.038-0.143 0.004-0.283 0.008-0.42 0.008-0.973-0.002-1.945 0.002-2.918 0.010l-0.042 0.001c0.023-1.864-0.392-3.463-1.732-4.826-1.119-1.16-2.66-1.818-4.272-1.825h-0.020zM19.17 12.964l0.052 0.003c0.001 0.004 0.003 0.007 0.004 0.010 0.001 0.002 0.001 0.003 0.002 0.005 0.002 0.006 0.004 0.010 0.006 0.015l0.002 0.005c0.010 0.022 0.011 0.026 0.011 0.061-0.017 2.285-0.628 5.227-2.25 6.901-1.502 1.55-3.834 2.31-5.961 2.352 0.991-1.863 2.583-3.63 4.225-4.943 0.254-0.203 0.52-0.386 0.786-0.57 0.171-0.118 0.343-0.236 0.511-0.36 0.163-0.12 0.383-0.283 0.407-0.501 0.021-0.201-0.086-0.358-0.212-0.501-0.177-0.102-0.306-0.145-0.507-0.086-0.286 0.084-0.575 0.296-0.835 0.487-0.069 0.051-0.136 0.1-0.2 0.145-2.105 1.491-3.855 3.429-5.123 5.676-0.043-1.828 0.373-3.359 1.494-4.829 1.682-2.206 4.902-3.503 7.59-3.869zM2.825 10.119l20.889-0c-0.074 0.704-0.122 1.413-0.17 2.122-0.027 0.395-0.053 0.79-0.085 1.183l-0.563 7.048-0.21 2.597c-0.009 0.113-0.018 0.226-0.026 0.34-0.034 0.448-0.068 0.9-0.154 1.339-0.089 0.45-0.261 0.842-0.495 1.234-0.090 0.137-0.188 0.268-0.293 0.394-0.606 0.724-1.6 1.263-2.544 1.334-0.514 0.039-1.043 0.029-1.567 0.019-0.227-0.004-0.453-0.008-0.676-0.009l-7.783 0c-0.166 0-0.336 0.004-0.506 0.007-0.523 0.011-1.059 0.022-1.561-0.065-0.659-0.115-1.276-0.406-1.784-0.841-0.609-0.513-1.045-1.201-1.252-1.969-0.141-0.51-0.176-1.053-0.211-1.586-0.009-0.134-0.017-0.267-0.028-0.399l-0.205-2.643-0.778-10.107zM19.634 11.739l-0.015 0.002c-3.171 0.367-6.781 1.671-8.831 4.24-1.317 1.651-2.037 3.798-1.799 5.913 0.052 0.464 0.157 0.908 0.309 1.35-0.017 0.044-0.038 0.096-0.062 0.156-0.26 0.654-0.865 2.174-0.655 2.624 0.061 0.13 0.185 0.217 0.319 0.26 0.055 0.017 0.111 0.027 0.169 0.034 0.178-0.029 0.342-0.066 0.449-0.225 0.115-0.171 0.232-0.582 0.333-0.933 0.048-0.167 0.092-0.321 0.13-0.429 0.13-0.37 0.278-0.734 0.426-1.098l0.002-0.004c0.017-0.043 0.035-0.085 0.052-0.128 2.615 0.008 5.408-0.811 7.299-2.677 2.115-2.088 2.648-5.454 2.653-8.303 0-0.225-0.015-0.491-0.179-0.663-0.101-0.106-0.253-0.138-0.394-0.134-0.068 0.002-0.136 0.009-0.204 0.016zM13.022 3.477c0.101-0.006 0.203-0.012 0.304-0.011 1.242 0.009 2.486 0.564 3.358 1.44 1.188 1.192 1.431 2.457 1.434 4.074l-9.671 0.004c-0.039-1.391 0.185-2.661 1.097-3.759 0.876-1.055 2.127-1.627 3.478-1.748z"></path>
            <path d="M19.222 12.967l-0.052-0.003c-2.688 0.366-5.907 1.663-7.59 3.869-1.121 1.47-1.537 3.001-1.494 4.829 1.268-2.247 3.018-4.185 5.123-5.676 0.065-0.045 0.132-0.094 0.2-0.145 0.26-0.191 0.549-0.403 0.835-0.487 0.202-0.059 0.331-0.017 0.507 0.086 0.126 0.144 0.233 0.3 0.212 0.502-0.023 0.219-0.243 0.381-0.407 0.501-0.168 0.123-0.34 0.242-0.511 0.36-0.266 0.183-0.532 0.367-0.786 0.57-1.642 1.312-3.234 3.079-4.225 4.943 2.127-0.042 4.459-0.803 5.961-2.352 1.622-1.674 2.234-4.616 2.25-6.901 0-0.035-0.001-0.039-0.011-0.061-0.002-0.005-0.005-0.012-0.008-0.020-0.002-0.004-0.004-0.009-0.006-0.015zM19.618 11.741l0.015-0.002c0.068-0.007 0.136-0.014 0.204-0.016 0.141-0.003 0.293 0.029 0.394 0.134 0.164 0.172 0.18 0.438 0.179 0.663-0.004 2.849-0.537 6.215-2.653 8.303-1.892 1.866-4.684 2.685-7.299 2.677-0.017 0.043-0.035 0.085-0.052 0.128l-0.002 0.004c-0.148 0.363-0.296 0.727-0.426 1.098-0.038 0.108-0.082 0.262-0.13 0.429-0.101 0.351-0.218 0.762-0.333 0.933-0.107 0.159-0.271 0.196-0.449 0.225-0.058-0.007-0.113-0.017-0.169-0.034-0.134-0.043-0.258-0.13-0.319-0.26-0.21-0.45 0.395-1.97 0.655-2.624 0.024-0.060 0.045-0.112 0.062-0.156-0.152-0.442-0.257-0.885-0.309-1.35-0.238-2.114 0.482-4.262 1.799-5.913 2.050-2.569 5.66-3.873 8.831-4.24z"></path>
            <path d="M19.634 11.739l-0.015 0.002c-3.171 0.367-6.781 1.671-8.831 4.24-1.317 1.651-2.037 3.798-1.799 5.913 0.052 0.464 0.157 0.908 0.309 1.35-0.017 0.044-0.038 0.096-0.062 0.156-0.26 0.654-0.865 2.174-0.655 2.624 0.061 0.13 0.185 0.217 0.319 0.26 0.055 0.017 0.111 0.027 0.169 0.034 0.178-0.029 0.342-0.066 0.449-0.225 0.115-0.171 0.232-0.581 0.333-0.933 0.048-0.167 0.092-0.321 0.13-0.43 0.13-0.37 0.278-0.734 0.426-1.098 0.001-0.001 0.001-0.003 0.002-0.004 0.017-0.043 0.035-0.085 0.052-0.128 2.615 0.008 5.408-0.811 7.299-2.677 2.115-2.088 2.648-5.454 2.653-8.303 0-0.225-0.015-0.491-0.179-0.663-0.101-0.106-0.253-0.138-0.394-0.134-0.068 0.002-0.136 0.009-0.204 0.016zM19.17 12.964l0.052 0.003c0.002 0.005 0.004 0.010 0.006 0.015 0.003 0.008 0.006 0.014 0.008 0.020 0.010 0.022 0.011 0.026 0.011 0.061-0.017 2.285-0.628 5.227-2.25 6.901-1.502 1.55-3.834 2.31-5.961 2.352 0.991-1.863 2.583-3.63 4.225-4.943 0.254-0.203 0.52-0.386 0.786-0.57 0.171-0.118 0.343-0.236 0.511-0.36 0.163-0.12 0.383-0.283 0.406-0.501 0.021-0.201-0.086-0.358-0.212-0.502-0.177-0.102-0.306-0.145-0.508-0.086-0.286 0.084-0.575 0.296-0.835 0.487-0.069 0.051-0.136 0.1-0.2 0.145-2.105 1.491-3.855 3.429-5.123 5.676-0.043-1.828 0.373-3.359 1.494-4.829 1.682-2.206 4.902-3.503 7.59-3.869z"></path>
            <path d="M60.463 19.483c-0.079-2.246-1.964-4.002-4.21-3.923s-4.003 1.964-3.924 4.21c0.079 2.246 1.965 4.003 4.211 3.924s4.002-1.965 3.923-4.211zM56.395 16.781c0.655 0.027 1.186 0.184 1.686 0.626 0.595 0.527 0.927 1.288 0.971 2.076s-0.204 1.589-0.742 2.177c-0.491 0.537-1.103 0.778-1.82 0.813-0.654-0.007-1.194-0.109-1.711-0.538-0.603-0.502-0.944-1.244-1.008-2.019-0.066-0.806 0.145-1.639 0.679-2.257 0.531-0.613 1.157-0.824 1.945-0.878z"></path>
            <path d="M49.153 19.146c-0.268-2.234-2.297-3.825-4.53-3.554-2.227 0.271-3.814 2.294-3.547 4.522s2.287 3.818 4.515 3.555c2.234-0.264 3.83-2.29 3.562-4.523zM44.753 16.814c0.651-0.053 1.242 0.015 1.792 0.394 0.618 0.425 1.006 1.081 1.135 1.814 0.146 0.832 0.009 1.723-0.492 2.416-0.438 0.607-0.986 0.909-1.716 1.025-0.667 0.034-1.256-0.006-1.817-0.404-0.606-0.427-1.014-1.079-1.132-1.811-0.136-0.807 0.027-1.735 0.508-2.406 0.423-0.59 1.014-0.916 1.722-1.029z"></path>
            <path d="M68.995 15.555c-0.020 0.001-0.040 0.002-0.060 0.005-1.024 0.121-1.947 0.617-2.591 1.43-0.735 0.928-0.987 2.105-0.842 3.269 0.119 1.022 0.642 1.954 1.452 2.589 0.96 0.746 2.178 0.935 3.364 0.773 0.687-0.094 1.718-0.423 2.157-0.994 0.124-0.16 0.186-0.356 0.157-0.559-0.020-0.142-0.082-0.278-0.199-0.365-0.135-0.1-0.314-0.113-0.474-0.081-0.222 0.043-0.421 0.181-0.61 0.311-0.040 0.027-0.079 0.055-0.118 0.080-0.829 0.431-1.748 0.633-2.659 0.338-0.648-0.213-1.184-0.679-1.485-1.292-0.157-0.313-0.235-0.646-0.305-0.987h3.91c0.162 0 0.337 0.006 0.516 0.012 0.464 0.015 0.96 0.031 1.369-0.042 0.117-0.021 0.228-0.083 0.313-0.166 0.192-0.187 0.226-0.452 0.221-0.708-0.022-0.979-0.482-1.946-1.194-2.608-0.823-0.765-1.815-1.053-2.922-1.003zM69.115 16.779c0.593-0.070 1.192 0.082 1.681 0.426 0.584 0.416 0.891 1.005 1.014 1.7-0.495 0.006-0.992 0.005-1.488 0.003-0.248-0.001-0.496-0.001-0.744-0.001l-2.75 0.004c0.126-0.423 0.272-0.807 0.543-1.162 0.436-0.571 1.039-0.877 1.743-0.969z"></path>
            <path d="M47.219 12.647c1.468-0.035 2.943-0.002 4.411-0.005 0.836-0.001 1.905-0.069 2.717 0.014 0.131 0.014 0.235 0.051 0.334 0.137 0.141 0.123 0.235 0.31 0.24 0.498 0.004 0.17-0.1 0.366-0.223 0.48-0.094 0.087-0.206 0.122-0.33 0.142-0.338 0.054-0.711 0.023-1.054 0.022l-1.822-0.003-0.001 6.762c0.003 0.57 0.075 1.813-0.011 2.297-0.027 0.152-0.082 0.304-0.187 0.421-0.113 0.125-0.268 0.188-0.435 0.192-0.175 0.004-0.346-0.034-0.472-0.162-0.149-0.149-0.203-0.368-0.221-0.572-0.034-0.375-0.003-0.773 0.001-1.15 0.006-0.558 0.001-1.116 0.001-1.674l0.004-6.116c-0.606 0.003-2.703 0.099-3.133-0.095-0.157-0.071-0.255-0.181-0.312-0.344-0.061-0.174-0.033-0.359 0.055-0.518 0.103-0.187 0.24-0.267 0.438-0.328z"></path>
            <path d="M37.62 15.56c0.545-0.031 1.078 0.004 1.607 0.146 0.559 0.15 1.414 0.479 1.703 1.010 0.079 0.146 0.121 0.321 0.065 0.482-0.057 0.165-0.214 0.291-0.371 0.355-0.46 0.188-1.035-0.445-1.468-0.608-0.703-0.265-1.549-0.25-2.233 0.069-0.629 0.294-1.080 0.849-1.314 1.495-0.272 0.749-0.295 1.726 0.050 2.456 0.32 0.677 0.908 1.15 1.606 1.396 0.798 0.282 1.63 0.132 2.377-0.226 0.231-0.125 0.441-0.292 0.705-0.347 0.136-0.028 0.271-0.013 0.387 0.067 0.143 0.099 0.258 0.295 0.277 0.468 0.018 0.162-0.045 0.311-0.146 0.436-0.437 0.541-1.408 0.813-2.070 0.894-1.148 0.141-2.343-0.089-3.262-0.822-0.863-0.675-1.413-1.674-1.52-2.764-0.114-1.086 0.205-2.174 0.887-3.027 0.691-0.85 1.635-1.365 2.721-1.481z"></path>
            <path d="M62.132 13.507c0.023-0.001 0.046-0.002 0.068-0.003 0.203-0.006 0.408 0.048 0.552 0.198 0.343 0.358 0.207 1.566 0.203 2.061 0.467 0.003 1.604-0.142 1.954 0.169 0.127 0.113 0.178 0.269 0.179 0.436 0.001 0.162-0.041 0.317-0.161 0.431-0.327 0.31-1.509 0.188-1.972 0.185 0.004 0.993-0.13 4.054 0.176 4.808 0.495 1.218 1.567 0.147 2.179 0.435 0.131 0.062 0.238 0.192 0.287 0.328 0.069 0.193 0.007 0.366-0.072 0.543-0.014 0.015-0.027 0.030-0.041 0.044-0.37 0.385-1.064 0.478-1.574 0.485-0.592 0.009-1.151-0.092-1.588-0.53-0.316-0.316-0.512-0.751-0.608-1.183-0.149-0.667-0.087-1.406-0.087-2.087l0.002-2.842c-0.359-0-0.718-0.003-1.077-0.009-0.059-0.037-0.117-0.075-0.169-0.122-0.142-0.128-0.206-0.318-0.211-0.506-0.004-0.157 0.044-0.312 0.161-0.421 0.29-0.268 0.927-0.172 1.296-0.166-0.001-0.517-0.114-1.444 0.081-1.899 0.087-0.202 0.229-0.275 0.423-0.356z"></path>
            <path d="M33.666 13.313c-0.618-0.061-3.644-0.039-4.694-0.024-0.193 0.003-0.372 0.016-0.529 0.028-0.134 0.010-0.252 0.018-0.349 0.019 0 0-0.418 0.098-0.553 0.286-0.089 0.123-0.119 0.28-0.14 0.427-0.112 0.782-0.178 1.579-0.243 2.374-0.034 0.418-0.069 0.836-0.11 1.25l-0.398 4.018c-0.011 0.107-0.029 0.254-0.050 0.421-0.067 0.538-0.161 1.284-0.1 1.58 0.033 0.164 0.121 0.3 0.266 0.386 0.143 0.085 0.306 0.133 0.469 0.16h0.001c0.338-0.001 0.847 0.005 1.416 0.010 1.179 0.012 4.178 0.027 4.876-0.003 0.139-0.006 0.286-0.018 0.417-0.067 0.176-0.067 0.321-0.194 0.39-0.371 0.070-0.178 0.055-0.378-0.025-0.55-0.080-0.174-0.188-0.266-0.369-0.324h-6.028c0.101-0.887 0.19-1.776 0.27-2.666l0.071-0.723 0.007-0.072c0.047 0.001 0.109 0.002 0.183 0.003 0.614 0.009 3.602 0.031 3.983-0.026 0.14-0.021 0.27-0.056 0.372-0.159 0.132-0.134 0.187-0.318 0.176-0.503-0.009-0.157-0.079-0.328-0.198-0.434-0.080-0.070-0.178-0.116-0.284-0.131-0.356-0.052-3.012-0.038-3.683-0.029-0.18 0.002-0.329 0.004-0.426 0.004l0.306-3.605h3.253c0.166 0 0.339 0.006 0.514 0.011 0.425 0.014 0.865 0.028 1.259-0.034 0.14-0.021 0.261-0.070 0.363-0.172 0.125-0.125 0.193-0.315 0.183-0.491-0.010-0.179-0.106-0.35-0.247-0.46-0.107-0.084-0.215-0.122-0.349-0.135z"></path>
        </symbol>
    </defs>
</svg>